<svg xmlns="http://www.w3.org/2000/svg" viewBox="0 0 512 512">
  <defs>
    <linearGradient id="fc" x1="0%" y1="0%" x2="100%" y2="100%">
      <stop offset="0%" style="stop-color:#8A63D2"/>
      <stop offset="100%" style="stop-color:#5B8DEF"/>
    </linearGradient>
  </defs>
  <rect width="512" height="512" rx="112" fill="url(#fc)"/>
  <g transform="translate(128, 80) scale(0.5)">
    <path d="M256 48C141.1 48 48 141.1 48 256s93.1 208 208 208 208-93.1 208-208S370.9 48 256 48zm0 378.7c-94.1 0-170.7-76.6-170.7-170.7S161.9 85.3 256 85.3 426.7 161.9 426.7 256 350.1 426.7 256 426.7z" fill="white" opacity="0.9"/>
  </g>
  <g transform="translate(140, 100)">
    <path d="M120 40C53.7 40 0 93.7 0 160v160c0 17.7 14.3 32 32 32 12 0 22.6-6.5 28.4-16.3C66.3 346.4 82 352 98.7 352c10.7 0 20.8-2.3 30-6.5C138 350.3 146 354 154.7 354H160c6.4 0 12.4-1 18.1-2.8C184 354.7 190 357 196.3 357h14c6.3 0 12.3-2.3 18.1-5.8C234.4 353.7 241 355 248 355h8c4 0 7.8-0.7 11.5-1.9 5.3 2.3 11 3.9 17.2 4.5 1.3.1 2.7.2 4 .2 11.4 0 22-3.5 30.8-9.5C317.2 363.3 330.3 374 345.3 374c6.9 0 13.5-1.5 19.5-4.2C371.7 379.3 380.3 385 390 389c5.3 2.2 11 3.5 16.8 3.8 1.3.1 2.7.1 4 .1 12.3 0 23.8-3.9 33.3-10.5C451 393.7 460 401.3 470.7 405.3c4 1.5 8.3 2.4 12.7 2.7 1.4.1 2.7.1 4 .1V160C491.3 93.7 437.7 40 371.3 40H120z" fill="white" opacity="0"/>
    <!-- Ghost body -->
    <path d="M192 80c-61.9 0-112 50.1-112 112v144c0 8.8 7.2 16 16 16 6 0 11.3-3.2 14.2-8.1 6.5 7.2 16.2 11.8 26.8 11.8 10.6 0 20.3-4.6 26.8-11.8C269.3 343.7 276 344 280 344c4.4 0 8.6-.4 12.6-1.2 5.2 6.3 12.7 10.5 21 11.5 1 .1 2 .2 3 .2 9.7 0 18.5-3.5 25.3-9.3 5.3 6.8 13.4 11.2 22.4 12.2 1.2.1 2.3.2 3.5.2 10.2 0 19.5-3.7 26.8-9.8C399.3 357 406.7 361 415 361c2.7 0 5.3-.3 7.8-.8V192c0-61.9-50.1-112-112-112H192z" fill="white"/>
    <!-- Ghost eyes -->
    <circle cx="230" cy="210" r="22" fill="#8A63D2"/>
    <circle cx="310" cy="210" r="22" fill="#8A63D2"/>
    <!-- Ghost mouth -->
    <ellipse cx="270" cy="270" rx="25" ry="18" fill="#8A63D2" opacity="0.6"/>
  </g>
</svg>
