<svg xmlns="http://www.w3.org/2000/svg" viewBox="0 0 512 512">
  <defs>
    <linearGradient id="bg" x1="0%" y1="0%" x2="100%" y2="100%">
      <stop offset="0%" style="stop-color:#8A63D2"/>
      <stop offset="100%" style="stop-color:#7C3AED"/>
    </linearGradient>
  </defs>
  <!-- Purple rounded background -->
  <rect width="512" height="512" rx="128" fill="url(#bg)"/>
  <!-- Ghost body -->
  <g transform="translate(128, 80)">
    <path d="M128 0C57.3 0 0 57.3 0 128v192c0 17.7 14.3 32 32 32 0-17.7 14.3-32 32-32 17.7 0 32 14.3 32 32 0-17.7 14.3-32 32-32s32 14.3 32 32c0 17.7 14.3 32 32 32s32-14.3 32-32c0 17.7 14.3 32 32 32 17.7 0 32-14.3 32-32V128C256 57.3 198.7 0 128 0z" fill="white"/>
  </g>
</svg>
