<svg xmlns="http://www.w3.org/2000/svg" viewBox="0 0 512 512">
  <rect width="512" height="512" rx="128" fill="#8B5CF6"/>
  <path d="M256 112C176.5 112 112 176.5 112 256v112c0 17.7 14.3 32 32 32 26.5 0 48-21.5 48-48s-21.5-48-48-48c-17.7 0-32 14.3-32 32v-32h64v32c0 26.5 21.5 48 48 48s48-21.5 48-48-21.5-48-48-48c-17.7 0-32 14.3-32 32h64c0-17.7-14.3-32-32-32-26.5 0-48 21.5-48 48s21.5 48 48 48 48-21.5 48-48c0-17.7 14.3-32 32-32h64c0 17.7 14.3 32 32 32 26.5 0 48-21.5 48-48s-21.5-48-48-48c-17.7 0-32 14.3-32 32h64c0-17.7-14.3-32-32-32-26.5 0-48 21.5-48 48s21.5 48 48 48 48-21.5 48-48V256c0-79.5-64.5-144-144-144z" fill="white"/>
</svg>
